<?xml version="1.0" encoding="utf-8"?>
<!-- Generator: Adobe Illustrator 18.1.1, SVG Export Plug-In . SVG Version: 6.00 Build 0)  -->
<svg version="1.1" id="Layer_1" xmlns="http://www.w3.org/2000/svg" xmlns:xlink="http://www.w3.org/1999/xlink" x="0px" y="0px"
	 viewBox="0 0 307.8 140.9" enable-background="new 0 0 307.8 140.9" xml:space="preserve">
<g>
	<path d="M167.3,69.4h7.1c0,0,9.2-5.4,18.1-7.9C192.5,61.5,184,61.5,167.3,69.4"/>
	<path d="M118.8,107.9h-5.1c0,0-6.8,4.6-13.4,6.9C100.3,114.8,106.5,114.6,118.8,107.9"/>
	<path d="M125.2,107.9h6.9c0,0-19.5,15.9-45.4,17.6C61,127,51.8,123,45.9,120.3c0,0,16.3,5.4,36.9,3.1c20.1-2.3,27.2-6.2,36.4-11.4
		L125.2,107.9z"/>
</g>
<path d="M82.3,78.5l-5.9,13l7.1,0L82.3,78.5z M63.7,102.7L78.3,73l12.3,0l3.1,29.7l-9.1,0l-0.5-5.6H73.8l-2.6,5.6H63.7z"/>
<polygon points="94,78.7 95.1,73 121.6,73 120.6,78.7 111.7,78.7 107.3,102.7 98.5,102.7 102.9,78.7 "/>
<polygon points="127.4,102.7 118.7,102.7 124.1,73 132.9,73 130.8,84.1 140.8,84.1 142.8,73 151.6,73 146.1,102.7 137.4,102.7 
	139.7,90 129.8,90 "/>
<polygon points="155.3,73 164.1,73.1 159.7,97.1 172.8,97.1 171.8,102.8 149.8,102.7 "/>
<polygon points="174.3,102.8 179.7,73.1 202.2,73.1 201.2,78.7 187.5,78.7 186.4,84.7 198.5,84.7 197.5,90.1 185.4,90.1 184.1,97.1 
	198.3,97.1 197.3,102.8 "/>
<polygon points="203.2,78.7 204.3,73.1 230.8,73.1 229.8,78.7 220.9,78.7 216.5,102.8 207.7,102.8 212.1,78.7 "/>
<polygon points="242.1,73.1 236.6,102.8 227.8,102.8 233.3,73.1 "/>
<g>
	<path d="M254.8,98.3c4.4,0,5.5-1.1,6.3-5.3l0.2-1h8.8l-0.3,1.6c-1,5.6-3.2,9.7-15.1,9.7c-10,0-13.8-3.3-13.3-8.9
		c0.2-2.5,0.5-4.4,0.9-6.4c0.4-2,0.8-4,1.5-6.4c1.5-5.6,6.6-8.9,16.6-8.9c11.1,0,12.5,4.5,11.5,10.1l-0.3,1.6l-8.8,0l0.2-1
		c0.8-4.6,0.1-5.7-4.2-5.7c-4.8,0-5.8,2.2-6.4,4.4c-0.6,2.3-1,4.1-1.3,5.9c-0.3,1.8-0.6,3.6-0.8,5.9C249.7,96,250,98.3,254.8,98.3"
		/>
	<path d="M291.3,82l0.2-1c0.4-2.1-0.6-3.4-3.7-3.4c-3,0-4.1,1.4-4.5,3.4c-0.4,2.2,0.4,2.9,5.4,3.7c8.1,1.2,11.2,1.9,9.9,9.1
		c-1.1,6.2-5.4,9.5-15.6,9.5c-11.6,0-12.1-4.6-11.2-9.4h8.8c-0.5,2.6-0.2,4.4,3.6,4.4c4.1,0,5-1.3,5.4-3.3c0.5-2.6-0.9-3.2-5.8-3.9
		c-8.1-1.1-10.8-2.4-9.5-9.4c1-5.6,4.8-9.1,14.3-9.1c12.4,0,12.1,5.5,11.4,9.4L291.3,82z"/>
</g>
<polygon points="172.1,121.5 170.7,121.5 163.4,112.5 163.4,121.5 161.1,121.5 161.1,107.1 162.9,107.1 169.7,115.6 169.7,107.1 
	172.1,107.1 "/>
<polygon points="184.4,121.5 175.2,121.5 175.2,107.1 183.9,107.1 183.9,109.2 178.4,109.2 178.4,113.1 182.7,113.1 182.7,115.3 
	178.4,115.3 178.4,119.4 184.4,119.4 "/>
<polygon points="204,107.1 200,121.5 197.7,121.5 194.6,112.1 191.5,121.5 189.2,121.5 185.2,107.1 188.5,107.1 191,116.2 
	193.8,107.1 196.1,107.1 199,116.2 201.4,107.1 "/>
<polygon points="220,121.5 210,121.5 210,119.6 216.4,109.2 210.3,109.2 210.3,107.1 220,107.1 220,109 213.6,119.4 220,119.4 "/>
<polygon points="231.3,121.5 222.2,121.5 222.2,107.1 230.9,107.1 230.9,109.2 225.4,109.2 225.4,113.1 229.7,113.1 229.7,115.3 
	225.4,115.3 225.4,119.4 231.3,119.4 "/>
<path d="M240.2,116l-1.8-5.3l-1.7,5.3H240.2z M245.3,121.5H242l-1.1-3.4h-4.8l-1.1,3.4h-2.7l4.9-14.4h3L245.3,121.5z"/>
<polygon points="255.9,121.5 247.3,121.5 247.3,107.1 250.5,107.1 250.5,119.4 255.9,119.4 "/>
<path d="M264.9,116l-1.8-5.3l-1.7,5.3H264.9z M270,121.5h-3.3l-1.1-3.4h-4.8l-1.1,3.4h-2.7l4.9-14.4h3L270,121.5z"/>
<polygon points="282.7,121.5 281.3,121.5 274.1,112.5 274.1,121.5 271.8,121.5 271.8,107.1 273.5,107.1 280.4,115.6 280.4,107.1 
	282.7,107.1 "/>
<g>
	<path d="M293.3,114.5v-0.4c0-1.6-0.3-2.8-0.8-3.6c-0.5-0.8-1.3-1.3-2.2-1.3H289v10.1h1.5c0.9,0,1.6-0.3,2.1-1
		C293.1,117.7,293.3,116.4,293.3,114.5 M296.6,114.6c0,2.3-0.5,4.1-1.4,5.2c-0.9,1.1-2.3,1.7-4.1,1.7h-5.3v-14.4h4.8
		c2.2,0,3.7,0.6,4.7,1.9c0.9,1.2,1.4,2.9,1.4,5.1V114.6z"/>
	<path d="M96.7,5.9l2-3.6L99.4,6l-1.2,0.4l-0.2,1.1l1.4,0.2l0.1,0.9L98,8.7l-0.2,1.2l1.9,0.7l0,0.9l-2.1-0.1l-0.2,1.1l2.5,0.7v1.1
		l-2.7,0l-0.3,1.3l3,0.7v1.2l-3.3-0.4l-0.2,1.1l3.5,1.5l0,1.2l-4.2-0.9l-0.5,1.4l4.7,1.6l-0.1,1.7l-5.3-1.4l-0.5,1.2l5.6,2.6
		l-0.2,1.7l-6.3-2.1L91.9,28l6.6,3.9l-0.3,1.6l-7.7-3.6l-0.8,1.2l7.6,6l-0.5,1.5L88,32.9L87,34l8.3,8l-0.9,1.5l-9.3-7.6l-1,1.4
		l8.6,9.1l-1.2,1.8l-9.4-8.8L81,40.8l8.4,10.5l-1.3,1.6l-9.3-10l-1.3,1.3l8.6,11.4l-1.2,1.4L74.5,46.4l-1.4,1.3l9,12.8L80.7,62
		L70,49.7l-1.5,1.2l10,13.7l-1.4,1.5L64.8,53.1l-2,1.5l11.5,14.6l-1.4,1.6L59.2,57.1l-1.9,1.4l13.3,15.3l-1.1,2.1L52.9,60.7L51,62.4
		l16.4,16.7l-1.1,1.8L46.3,65.6l-1.9,1.8l19.9,16.4l-0.8,1.6L40.2,71.2l-2.4,2.3l24.1,15.3l-1.1,1.8L33.6,78.3l-1.9,2.6l28,14
		L59,97.2L28.3,86.8c0,0-7.7,14.5,5.8,28c0,0,8.4,8.5,23.6,11.6c0,0-26.5-1.3-35-23c0,0-6.9-16.6,15.1-34.2
		c22-17.7,29.1-19,38.2-27.2c9.2-8.3,15.8-14.4,19.8-27.1c0,0,1.6-7.3,1.8-8.4L96.7,5.9z"/>
</g>
<polygon points="23.2,81.1 25.1,78.3 11.5,53.3 7,57.8 "/>
<polygon points="28.9,73.6 14.5,51 19.3,47.8 30.6,72.2 "/>
<polygon points="35.5,67.7 37.4,66.4 27.8,42.4 22.8,45.5 "/>
<polygon points="42.8,62.2 31.2,40.9 36.9,38.8 44.6,61 "/>
<polygon points="49.6,57.2 40.4,37.8 45.1,36 51.5,56.1 "/>
<polygon points="56.7,53.4 48.4,35.1 52.9,33.7 58.4,52.6 "/>
<polygon points="63.1,49.6 64.5,48.6 59.8,31.3 55.6,32.7 "/>
<polygon points="68.5,46.3 69.6,45.4 65.3,29.5 61.7,30.7 "/>
<polygon points="72.8,42.8 74.1,41.9 70,27.6 67.1,28.9 "/>
<polygon points="77.2,39.7 71.4,27 74,25.8 78.1,38.8 "/>
<polygon points="80.5,36.7 75.1,25 77.3,24 81.4,35.7 "/>
<polygon points="83.4,33.6 78.3,23.5 80.2,22.4 84.1,32.8 "/>
<polygon points="86.2,30.5 81.2,22 82.9,20.7 87,29.6 "/>
<polygon points="88.8,27.2 83.7,20.4 85.3,19.2 89.3,26.7 "/>
<polygon points="90.7,24.5 86.1,18.7 87.5,17.4 91.2,23.8 "/>
<polygon points="92.4,21.6 88.3,17 89.5,15.7 92.9,20.7 "/>
<polygon points="93.8,18.3 90.4,15 91.3,13.8 94.1,17.5 "/>
<polygon points="94.8,15.5 92,13.2 92.7,12 95,14.8 "/>
<polygon points="95.7,13 95.8,12.3 94,10.2 93.4,11.2 "/>
<polygon points="94.4,9.7 96.2,10.9 96.2,10.1 94.9,8.9 "/>
<polygon points="95.5,7.9 96.6,8.8 96.9,8 96,7.1 "/>
<polygon points="97.6,6.4 98.7,2.3 96.7,5.9 "/>
</svg>
