<?xml version="1.0" encoding="utf-8"?>
<!-- Generator: Adobe Illustrator 18.1.1, SVG Export Plug-In . SVG Version: 6.00 Build 0)  -->
<svg version="1.1" id="Layer_1" xmlns="http://www.w3.org/2000/svg" xmlns:xlink="http://www.w3.org/1999/xlink" x="0px" y="0px"
	 viewBox="-28.3 237.5 612 284.2" enable-background="new -28.3 237.5 612 284.2" xml:space="preserve">
<g id="Layer_1_1_">
</g>
<g>
	<polygon points="379.1,237.5 251.8,237.5 114,237.5 57.8,237.5 17.5,237.5 -8.8,237.5 -28.3,237.5 -28.3,261.9 -28.3,294.9 
		-28.3,386.8 -28.3,454.6 -28.3,521.7 57.8,521.7 397.1,521.7 524.2,521.7 583.7,521.7 583.7,487.9 583.7,237.5 	"/>
	<polygon fill="#020202" points="251.8,237.5 114,237.5 183,274.3 	"/>
	<polygon fill="#020202" points="246.6,308.2 379.1,237.5 251.8,237.5 183,274.3 	"/>
	
		<radialGradient id="SVGID_1_" cx="181.4324" cy="117.8106" r="184.5152" gradientTransform="matrix(0.5186 0 0 0.5186 -9.8086 280.6895)" gradientUnits="userSpaceOnUse">
		<stop  offset="0" style="stop-color:#0F5088"/>
		<stop  offset="1" style="stop-color:#040D14"/>
	</radialGradient>
	<polygon fill="url(#SVGID_1_)" points="58,340.9 121.5,374.8 185.1,340.9 121.5,307 	"/>
	<polygon fill="#FFFFFF" stroke="#000000" stroke-miterlimit="10" points="57.8,340.8 57.8,340.9 58,340.9 	"/>
	<polygon fill="#020202" points="121.5,307 185.1,340.9 246.6,308.2 183,274.3 	"/>
	
		<radialGradient id="SVGID_2_" cx="109.436" cy="12.8158" r="118.3041" gradientTransform="matrix(0.5186 0 0 0.5186 -9.8086 280.6895)" gradientUnits="userSpaceOnUse">
		<stop  offset="0" style="stop-color:#7EBEEA"/>
		<stop  offset="1" style="stop-color:#1171C9"/>
	</radialGradient>
	<polygon fill="url(#SVGID_2_)" points="121.5,307 57.8,273 57.8,340.8 58,340.9 	"/>
	
		<radialGradient id="SVGID_3_" cx="329.8218" cy="219.0284" r="153.2454" gradientTransform="matrix(0.5186 0 0 0.5186 -9.8086 280.6895)" gradientUnits="userSpaceOnUse">
		<stop  offset="0" style="stop-color:#7EBEEA"/>
		<stop  offset="1" style="stop-color:#1376D1"/>
	</radialGradient>
	<polygon fill="url(#SVGID_3_)" points="57.8,340.9 57.8,408.8 121.5,374.8 58,340.9 	"/>
	<polygon fill="#020202" points="583.7,487.9 583.7,237.5 379.1,237.5 246.6,308.2 	"/>
	
		<linearGradient id="SVGID_4_" gradientUnits="userSpaceOnUse" x1="10.4911" y1="-59.6454" x2="328.4752" y2="-1.1483" gradientTransform="matrix(0.5186 0 0 0.5186 -9.8086 280.6895)">
		<stop  offset="0" style="stop-color:#1171C9"/>
		<stop  offset="1" style="stop-color:#040D14"/>
	</linearGradient>
	<polygon fill="url(#SVGID_4_)" points="114,237.5 57.8,237.5 17.5,237.5 4.3,244.5 57.8,273 121.5,307 183,274.3 	"/>
	
		<radialGradient id="SVGID_5_" cx="-15.0578" cy="320.3004" r="217.6184" fx="-65.4175" fy="322.2682" gradientTransform="matrix(0.5186 0 0 0.5186 -9.8086 280.6895)" gradientUnits="userSpaceOnUse">
		<stop  offset="0" style="stop-color:#092A42"/>
		<stop  offset="1" style="stop-color:#1376D1"/>
	</radialGradient>
	<polygon fill="url(#SVGID_5_)" points="57.8,340.9 -28.3,386.8 -28.3,454.6 57.8,408.8 	"/>
	
		<linearGradient id="SVGID_6_" gradientUnits="userSpaceOnUse" x1="291.4622" y1="146.5515" x2="345.4595" y2="250.0463" gradientTransform="matrix(0.5186 0 0 0.5186 -9.8086 280.6895)">
		<stop  offset="0" style="stop-color:#092A42"/>
		<stop  offset="1" style="stop-color:#040D14"/>
	</linearGradient>
	<polygon fill="url(#SVGID_6_)" points="57.8,408.8 57.8,521.7 397.1,521.7 121.5,374.8 	"/>
	<polygon fill="#020202" points="583.7,487.9 246.6,308.2 185.1,340.9 524.2,521.7 583.7,521.7 	"/>
	<polygon fill="#020202" points="121.5,374.8 397.1,521.7 524.2,521.7 185.1,340.9 	"/>
	<polygon fill="#040D14" points="-28.3,454.6 -28.3,521.7 57.8,521.7 57.8,408.8 	"/>
	
		<radialGradient id="SVGID_7_" cx="38.9395" cy="81.8123" r="226.846" gradientTransform="matrix(0.5186 0 0 0.5186 -9.8086 280.6895)" gradientUnits="userSpaceOnUse">
		<stop  offset="0" style="stop-color:#7EBEEA"/>
		<stop  offset="1" style="stop-color:#1171C9"/>
	</radialGradient>
	<polygon fill="url(#SVGID_7_)" points="57.8,340.8 -28.3,294.9 -28.3,386.8 57.8,340.9 	"/>
	<polygon fill="#0E5DA0" points="17.5,237.5 -8.8,237.5 4.3,244.5 	"/>
	<polygon fill="#177AD3" points="-8.8,237.5 -28.3,237.5 -28.3,261.9 4.3,244.5 	"/>
	
		<radialGradient id="SVGID_8_" cx="52.4388" cy="-0.6835" r="232.3722" gradientTransform="matrix(0.5186 0 0 0.5186 -9.8086 280.6895)" gradientUnits="userSpaceOnUse">
		<stop  offset="0" style="stop-color:#7EBEEA"/>
		<stop  offset="1" style="stop-color:#1171C9"/>
	</radialGradient>
	<polygon fill="url(#SVGID_8_)" points="57.8,273 4.3,244.5 -28.3,261.9 -28.3,294.9 57.8,340.8 	"/>
</g>
</svg>
